<?xml version="1.0" standalone="no"?>
<!DOCTYPE svg PUBLIC "-//W3C//DTD SVG 20010904//EN"
 "http://www.w3.org/TR/2001/REC-SVG-20010904/DTD/svg10.dtd">
<svg version="1.0" xmlns="http://www.w3.org/2000/svg"
 width="69.000000pt" height="117.000000pt" viewBox="0 0 69.000000 117.000000"
 preserveAspectRatio="xMidYMid meet">

<g transform="translate(0.000000,117.000000) scale(0.100000,-0.100000)"
fill="#000000" stroke="none">
<path d="M165 1081 c-66 -38 -121 -75 -122 -83 -2 -11 191 -128 211 -128 3 0
6 6 6 14 0 15 -42 46 -62 46 -8 0 -25 8 -38 17 -14 10 -34 16 -45 15 -12 -2
-16 0 -9 5 16 12 34 49 34 71 0 10 6 19 13 19 6 0 38 12 70 27 57 27 60 27 94
11 19 -9 43 -15 54 -12 10 3 17 2 14 -2 -5 -8 126 -111 141 -111 12 0 57 -49
73 -79 8 -14 14 -71 16 -145 3 -135 -3 -157 -60 -224 -19 -21 -31 -42 -28 -46
3 -3 -4 -6 -16 -6 -28 0 -57 -15 -64 -34 -5 -12 -1 -13 16 -6 12 4 21 13 19
20 -1 6 6 10 15 9 14 -3 130 56 151 76 6 5 3 405 -3 415 -7 11 -339 200 -351
200 -5 0 -63 -31 -129 -69z"/>
<path d="M174 685 c-60 -35 -117 -70 -126 -79 -16 -14 -18 -38 -18 -221 l0
-205 68 -43 c88 -56 179 -107 192 -107 12 0 14 706 2 714 -5 3 -58 -24 -118
-59z"/>
<path d="M410 409 c0 -5 5 -7 10 -4 6 3 10 8 10 11 0 2 -4 4 -10 4 -5 0 -10
-5 -10 -11z"/>
</g>
</svg>
